<?xml version="1.0" encoding="UTF-8" standalone="no"?>
<!-- Created with Inkscape (http://www.inkscape.org/) -->

<svg
   xmlns:dc="http://purl.org/dc/elements/1.1/"
   xmlns:cc="http://creativecommons.org/ns#"
   xmlns:rdf="http://www.w3.org/1999/02/22-rdf-syntax-ns#"
   xmlns:svg="http://www.w3.org/2000/svg"
   xmlns="http://www.w3.org/2000/svg"
   xmlns:sodipodi="http://sodipodi.sourceforge.net/DTD/sodipodi-0.dtd"
   xmlns:inkscape="http://www.inkscape.org/namespaces/inkscape"
   width="57.319523"
   height="42.088619"
   id="svg4598"
   version="1.1"
   inkscape:version="0.91 r13725"
   sodipodi:docname="big_mommy_unknown.svg">
  <defs
     id="defs4600" />
  <sodipodi:namedview
     id="base"
     pagecolor="#ffffff"
     bordercolor="#666666"
     borderopacity="1.0"
     inkscape:pageopacity="0.0"
     inkscape:pageshadow="2"
     inkscape:zoom="5.6"
     inkscape:cx="14.015866"
     inkscape:cy="20.220489"
     inkscape:document-units="px"
     inkscape:current-layer="layer1"
     showgrid="false"
     fit-margin-top="0"
     fit-margin-left="0"
     fit-margin-right="0"
     fit-margin-bottom="0"
     inkscape:window-width="1536"
     inkscape:window-height="803"
     inkscape:window-x="-8"
     inkscape:window-y="-8"
     inkscape:window-maximized="1"
     showguides="true"
     inkscape:guide-bbox="true" />
  <metadata
     id="metadata4603">
    <rdf:RDF>
      <cc:Work
         rdf:about="">
        <dc:format>image/svg+xml</dc:format>
        <dc:type
           rdf:resource="http://purl.org/dc/dcmitype/StillImage" />
        <dc:title />
      </cc:Work>
    </rdf:RDF>
  </metadata>
  <g
     inkscape:label="Ebene 1"
     inkscape:groupmode="layer"
     id="layer1"
     transform="translate(-323.40685,-228.11928)">
    <path
       style="fill:#3d3125;fill-opacity:1;stroke:none"
       d="m 370.92577,253.63508 c 0,0 8.7911,1.79959 8.79665,2.1184 0.006,0.31881 -8.75067,2.43147 -8.75067,2.43147 z"
       id="rect3997"
       inkscape:connector-curvature="0"
       sodipodi:nodetypes="czcc" />
    <path
       style="fill:none;stroke:#000000;stroke-width:0.24323325px;stroke-linecap:butt;stroke-linejoin:miter;stroke-opacity:1"
       d="m 333.752,245.29189 c -1.92627,-3.01545 -5.77766,-5.72801 -9.45956,-4.17694"
       id="path4022"
       inkscape:connector-curvature="0" />
    <path
       style="fill:#e3c33c;fill-opacity:1;stroke:none"
       d="m 344.21585,241.63598 c -8.80882,0 -15.94699,6.39047 -15.94699,14.28196 0,7.89151 7.13817,14.28996 15.94699,14.28996 l 13.14979,0 c 8.80881,0 15.94699,-6.39845 15.94699,-14.28996 0,-7.89149 -7.13818,-14.28196 -15.94699,-14.28196 z"
       id="path2996"
       inkscape:connector-curvature="0"
       sodipodi:nodetypes="csccscc" />
    <path
       sodipodi:type="arc"
       style="fill:#3d3125;fill-opacity:1;stroke:none"
       id="path3819"
       sodipodi:cx="383.39285"
       sodipodi:cy="386.82648"
       sodipodi:rx="5.8928571"
       sodipodi:ry="8.0357141"
       d="m 389.28571,386.82648 a 5.8928571,8.0357141 0 0 1 -5.89286,8.03571 5.8928571,8.0357141 0 0 1 -5.89285,-8.03571 5.8928571,8.0357141 0 0 1 5.89285,-8.03572 5.8928571,8.0357141 0 0 1 5.89286,8.03572 z"
       transform="matrix(0.24323327,0,0,0.24323327,243.04556,156.5791)" />
    <path
       sodipodi:type="arc"
       style="fill:#3d3125;fill-opacity:1;stroke:none"
       id="path4143"
       sodipodi:cx="339.91632"
       sodipodi:cy="349.80109"
       sodipodi:rx="2.0203052"
       sodipodi:ry="2.0203052"
       d="m 341.93663,349.80109 a 2.0203052,2.0203052 0 0 1 -2.02031,2.0203 2.0203052,2.0203052 0 0 1 -2.0203,-2.0203 2.0203052,2.0203052 0 0 1 2.0203,-2.02031 2.0203052,2.0203052 0 0 1 2.02031,2.02031 z"
       transform="matrix(0.24323327,0,0,0.24323327,242.67572,150.37584)" />
    <path
       sodipodi:type="arc"
       style="fill:#3d3125;fill-opacity:1;stroke:none"
       id="path4143-5"
       sodipodi:cx="339.91632"
       sodipodi:cy="349.80109"
       sodipodi:rx="2.0203052"
       sodipodi:ry="2.0203052"
       d="m 341.93663,349.80109 a 2.0203052,2.0203052 0 0 1 -2.02031,2.0203 2.0203052,2.0203052 0 0 1 -2.0203,-2.0203 2.0203052,2.0203052 0 0 1 2.0203,-2.02031 2.0203052,2.0203052 0 0 1 2.02031,2.02031 z"
       transform="matrix(0.24323327,0,0,0.24323327,241.2193,156.12405)" />
    <path
       style="fill:#3d3125;fill-opacity:1;stroke:none"
       d="m 344.20282,241.63598 c -0.94239,0 -1.86173,0.0761 -2.75919,0.21639 l 0,28.13916 c 0.89726,0.14041 1.81703,0.21637 2.75919,0.21637 l 6.37727,0 0,-28.57192 -6.37727,0 z"
       id="path2996-1"
       inkscape:connector-curvature="0" />
    <path
       style="fill:#3d3125;fill-opacity:1;stroke:none"
       d="m 358.88153,241.72014 0,28.40361 0.32684,0 c 3.20306,-0.33194 6.11641,-1.51187 8.45236,-3.28597 l 0,-21.80762 c -2.41521,-1.83276 -5.4475,-3.0271 -8.7792,-3.31002 z"
       id="path2996-1-4"
       inkscape:connector-curvature="0" />
    <path
       sodipodi:type="arc"
       style="fill:#3d3125;fill-opacity:1;stroke:none"
       id="path3819-23"
       sodipodi:cx="383.39285"
       sodipodi:cy="386.82648"
       sodipodi:rx="5.8928571"
       sodipodi:ry="8.0357141"
       d="m 389.28571,386.82648 a 5.8928571,8.0357141 0 0 1 -5.89286,8.03571 5.8928571,8.0357141 0 0 1 -5.89285,-8.03571 5.8928571,8.0357141 0 0 1 5.89285,-8.03572 5.8928571,8.0357141 0 0 1 5.89286,8.03572 z"
       transform="matrix(0.24323327,0,0,0.24323327,239.02388,156.48542)" />
    <path
       style="fill:#ffffff;fill-opacity:1;stroke:none"
       d="m 346.44524,251.38239 c 2.88421,-1.59513 10.26505,-4.69078 13.74406,-4.94846 7.35186,-1.51966 10.17859,-2.08908 17.71865,-2.30779 2.21376,0.33324 3.50286,2.87541 2.43944,4.68158 -2.31573,8.21572 -12.16984,13.96578 -21.24513,12.55779 -3.19921,-0.33275 -5.39375,-4.86621 -12.42178,-5.52587"
       id="path3884-8"
       inkscape:connector-curvature="0"
       sodipodi:nodetypes="cccccc" />
    <path
       style="fill:none;stroke:#000000;stroke-width:0.24323325px;stroke-linecap:butt;stroke-linejoin:miter;stroke-opacity:1"
       d="m 337.19185,245.90613 c -1.68821,-3.93701 -5.3764,-11.07438 -11.54804,-10.44236"
       id="path4020"
       inkscape:connector-curvature="0"
       sodipodi:nodetypes="cc" />
  </g>
</svg>
