<?xml version="1.0" encoding="UTF-8" standalone="no"?>
<!-- Created with Inkscape (http://www.inkscape.org/) -->

<svg
   xmlns:dc="http://purl.org/dc/elements/1.1/"
   xmlns:cc="http://creativecommons.org/ns#"
   xmlns:rdf="http://www.w3.org/1999/02/22-rdf-syntax-ns#"
   xmlns:svg="http://www.w3.org/2000/svg"
   xmlns="http://www.w3.org/2000/svg"
   xmlns:sodipodi="http://sodipodi.sourceforge.net/DTD/sodipodi-0.dtd"
   xmlns:inkscape="http://www.inkscape.org/namespaces/inkscape"
   viewBox = "0 0 225.71457 225.71455"
   width="225.71457"
   height="225.71455"
   id="svg4598"
   version="1.1"
   inkscape:version="0.91 r13725"
   sodipodi:docname="ernte_white.svg"
   inkscape:export-filename="C:\Users\Sebastian\Desktop\path4363.png"
   inkscape:export-xdpi="90"
   inkscape:export-ydpi="90">
  <defs
     id="defs4600" />
  <sodipodi:namedview
     id="base"
     pagecolor="#ffffff"
     bordercolor="#666666"
     borderopacity="1.0"
     inkscape:pageopacity="0.0"
     inkscape:pageshadow="2"
     inkscape:zoom="1.979899"
     inkscape:cx="70.757113"
     inkscape:cy="96.814637"
     inkscape:document-units="px"
     inkscape:current-layer="layer1"
     showgrid="false"
     fit-margin-top="0"
     fit-margin-left="0"
     fit-margin-right="0"
     fit-margin-bottom="0"
     inkscape:window-width="1536"
     inkscape:window-height="803"
     inkscape:window-x="-8"
     inkscape:window-y="-8"
     inkscape:window-maximized="1"
     showguides="false" />
  <metadata
     id="metadata4603">
    <rdf:RDF>
      <cc:Work
         rdf:about="">
        <dc:format>image/svg+xml</dc:format>
        <dc:type
           rdf:resource="http://purl.org/dc/dcmitype/StillImage" />
        <dc:title />
      </cc:Work>
    </rdf:RDF>
  </metadata>
  <g
     inkscape:label="Ebene 1"
     inkscape:groupmode="layer"
     id="layer1"
     transform="translate(324.13811,1.2536199)">
    <path
       style="fill:#d9d4cf;fill-opacity:1;stroke:none"
       d="M 112.85742 9.2949219 A 103.56303 103.56303 0 0 0 9.2949219 112.85547 A 103.56303 103.56303 0 0 0 112.85742 216.41992 A 103.56303 103.56303 0 0 0 216.41992 112.85547 A 103.56303 103.56303 0 0 0 112.85742 9.2949219 z "
       transform="translate(-324.13811,-1.2536199)"
       id="rect6137" />
    <path
       style="fill:#e3c33c;fill-opacity:1;fill-rule:evenodd;stroke:none;stroke-width:0;stroke-linecap:butt;stroke-linejoin:miter;stroke-miterlimit:4;stroke-dasharray:none;stroke-opacity:1"
       d="M 112.85742 9.2949219 A 103.56303 103.56303 0 0 0 48.742188 31.546875 C 120.46341 106.24548 40.043936 157.86972 114.28516 165.71484 C 182.94902 160.62387 100.38613 96.192541 174.56836 29.841797 A 103.56303 103.56303 0 0 0 112.85742 9.2949219 z "
       transform="translate(-324.13811,-1.2536199)"
       id="path5206" />
    <path
       style="fill:#fbf7e6;fill-opacity:1;fill-rule:evenodd;stroke:none;stroke-width:0;stroke-linecap:butt;stroke-linejoin:miter;stroke-miterlimit:4;stroke-dasharray:none;stroke-opacity:1"
       d="M 65.279297 20.90625 A 103.56303 103.56303 0 0 0 55.376953 26.800781 C 97.646604 74.34245 85.232927 116.632 80.595703 151.70312 C 82.967903 148.11836 99.894483 151.69437 102.18945 148.18555 C 77.163757 139.21094 122.65427 75.97906 65.279297 20.90625 z "
       transform="translate(-324.13811,-1.2536199)"
       id="path5206-9" />
    <path
       style="opacity:1;fill:#e3c33c;fill-opacity:1;stroke:none;stroke-width:15.85999966;stroke-linecap:round;stroke-linejoin:round;stroke-miterlimit:4;stroke-dasharray:none;stroke-opacity:1"
       d="M 40.664062 108.94531 C 40.292863 108.94531 39.994141 109.26634 39.994141 109.66406 L 39.994141 118.78711 C 39.994141 119.18483 40.292863 119.50391 40.664062 119.50391 L 43.587891 119.50391 L 44.544922 190.58008 A 103.56303 103.56303 0 0 0 49.695312 194.76953 L 176.13086 194.76953 A 103.56303 103.56303 0 0 0 181.65039 190.10156 L 182.59961 119.50391 L 184.71094 119.50391 C 185.08215 119.50391 185.38086 119.18483 185.38086 118.78711 L 185.38086 109.66406 C 185.38086 109.26634 185.08215 108.94531 184.71094 108.94531 L 40.664062 108.94531 z "
       transform="translate(-324.13811,-1.2536199)"
       id="rect5043" />
    <rect
       style="opacity:1;fill:#ffffff;fill-opacity:1;stroke:none;stroke-width:15.85999966;stroke-linecap:round;stroke-linejoin:round;stroke-miterlimit:4;stroke-dasharray:none;stroke-opacity:1"
       id="rect5118"
       width="68.923798"
       height="48.411552"
       x="-210.05008"
       y="131.68787"
       rx="0.47484201"
       ry="0.71790159" />
    <path
       style="opacity:1;fill:#f7eec6;fill-opacity:1;stroke:none;stroke-width:15.85999966;stroke-linecap:round;stroke-linejoin:round;stroke-miterlimit:4;stroke-dasharray:none;stroke-opacity:1"
       d="m -280.73855,107.80056 c -0.33696,0 -0.60826,0.29121 -0.60826,0.65224 l 0,8.28127 c 0,0.36103 0.2713,0.65119 0.60826,0.65119 l 2.65294,0 0.90665,67.35361 c 0.007,0.53694 0.21976,0.96946 0.49206,0.96946 l 16.77716,0 c -0.008,-0.0688 -0.022,-0.13367 -0.0231,-0.20729 l -0.90665,-67.35465 -2.65398,0 c -0.33697,0 -0.60827,-0.29017 -0.60827,-0.6512 l 0,-8.28127 c 0,-0.36103 0.2713,-0.65224 0.60827,-0.65224 l 114.1234,0 0,-0.10888 c 0,-0.36103 -0.27131,-0.65224 -0.60827,-0.65224 l -130.76027,0 z"
       id="rect5043-3"
       inkscape:connector-curvature="0" />
    <path
       style="opacity:1;fill:#5b4c0d;fill-opacity:1;stroke:none;stroke-width:15.85999966;stroke-linecap:round;stroke-linejoin:round;stroke-miterlimit:4;stroke-dasharray:none;stroke-opacity:1"
       d="m -280.63463,118.26347 0.0178,1.88051 138.97662,0 0.0178,-1.88051 -139.01222,0 z"
       id="rect5043-9"
       inkscape:connector-curvature="0" />
    <path
       inkscape:connector-curvature="0"
       style="opacity:1;fill:#5b4c0d;fill-opacity:1;stroke:none;stroke-width:15.85999966;stroke-linecap:round;stroke-linejoin:round;stroke-miterlimit:4;stroke-dasharray:none;stroke-opacity:1"
       d="m -207.87214,116.41686 -1.29192,0.79357 5.33414,8.68644 -9.40987,5.77909 -13.50233,8.29173 -52.99279,32.54507 c -0.024,0.0147 -0.0482,0.0273 -0.0722,0.0419 l 0.0178,1.80596 c 0.75678,-0.23738 1.54379,-0.5906 2.31583,-1.06473 l 52.99278,-32.54507 13.50234,-8.29174 9.40986,-5.77908 -6.3036,-10.26312 z"
       id="rect5051-2" />
    <path
       style="opacity:1;fill:#000080;fill-opacity:1;stroke:none;stroke-width:15.85999966;stroke-linecap:round;stroke-linejoin:round;stroke-miterlimit:4;stroke-dasharray:none;stroke-opacity:1"
       d="m -209.4601,115.20683 -9.41001,5.77893 -13.50172,8.29173 -52.99341,32.54455 c -2.83954,1.74384 -4.36129,4.39253 -3.41218,5.93799 l 2.87594,4.683 c 0.94911,1.54547 3.99968,1.3862 6.83922,-0.35763 l 52.99342,-32.54456 13.50171,-8.29173 9.41,-5.77892 -6.30297,-10.26336 z"
       id="rect5051"
       inkscape:connector-curvature="0" />
  </g>
</svg>
