<?xml version="1.0" encoding="UTF-8" standalone="no"?>
<svg
   xmlns:dc="http://purl.org/dc/elements/1.1/"
   xmlns:cc="http://creativecommons.org/ns#"
   xmlns:rdf="http://www.w3.org/1999/02/22-rdf-syntax-ns#"
   xmlns:svg="http://www.w3.org/2000/svg"
   xmlns="http://www.w3.org/2000/svg"
   xmlns:sodipodi="http://sodipodi.sourceforge.net/DTD/sodipodi-0.dtd"
   xmlns:inkscape="http://www.inkscape.org/namespaces/inkscape"
   id="svg4598"
   viewBox="0 0 225.71 225.71"
   version="1.1"
   inkscape:version="0.91 r13725"
   sodipodi:docname="varokontrolle.svg">
  <metadata
     id="metadata49">
    <rdf:RDF>
      <cc:Work
         rdf:about="">
        <dc:format>image/svg+xml</dc:format>
        <dc:type
           rdf:resource="http://purl.org/dc/dcmitype/StillImage" />
        <dc:title></dc:title>
      </cc:Work>
    </rdf:RDF>
  </metadata>
  <defs
     id="defs47" />
  <sodipodi:namedview
     pagecolor="#ffffff"
     bordercolor="#666666"
     borderopacity="1"
     objecttolerance="10"
     gridtolerance="10"
     guidetolerance="10"
     inkscape:pageopacity="0"
     inkscape:pageshadow="2"
     inkscape:window-width="1536"
     inkscape:window-height="801"
     id="namedview45"
     showgrid="false"
     inkscape:zoom="1.0455894"
     inkscape:cx="112.855"
     inkscape:cy="112.855"
     inkscape:window-x="-8"
     inkscape:window-y="-8"
     inkscape:window-maximized="1"
     inkscape:current-layer="layer1" />
  <g
     id="layer1"
     transform="translate(324.14 1.2536)">
    <rect
       style="fill:#d9d4cf"
       x="-316.70999"
       y="1.8591"
       width="215.46001"
       height="218.92999"
       ry="5.5556002"
       rx="2.0185001"
       id="rect6137" />
    <path
       style="fill:#e3c33c"
       inkscape:connector-curvature="0"
       d="m -317.93,142.76 c -0.0496,0 -0.0988,0.001 -0.14843,0.001 l 0,78.669 214.15,0 0,-74.252 c 0,-0.49825 0.0431,-0.97758 0.10938,-1.4427 -15.765,-1.9412 -32.275,-2.9753 -49.285,-2.9753 l -164.83,0 z"
       id="path2996-5" />
    <path
       style="fill:#3d3125"
       inkscape:connector-curvature="0"
       d="m -318.08,142.76 0,77.66 79.922,0 0,-77.66 -79.922,0 z"
       id="path2996-1-9" />
    <rect
       style="fill:#ffffff"
       x="-134.14"
       y="-56.967999"
       width="77.142998"
       height="81.429001"
       ry="5.5556002"
       rx="2.0185001"
       id="rect8745" />
    <g
       id="g11981"
       transform="translate(194.45 24.244)">
      <path
         id="path3819-23-6-0-5-2"
         d="m-402.99 98.792a2.1941 2.9919 0 0 1 -1.7334 2.9252 2.1941 2.9919 0 0 1 -2.4613 -1.6969 2.1941 2.9919 0 0 1 0.69994 -3.6378"
         fill="#fff" />
      <path
         id="path9883-7-6-38"
         d="m-385.03 97.653c-14.344 19.08-85.129 37.985-89.993 3.939 24.866-47.954 63.733-16.203 89.993-3.939z"
         fill="#483629" />
      <path
         id="path9883-7-5"
         d="m-380.5 97.633c-29.486 13.842-55.427 11.602-73.191 10.91-17.764-0.69178-22.494-8.3415-24.012-10.026-1.5177-1.6842-1.9483-1.2999-2.0592-3.6875 3.5448-28.567 39.688-29.586 55.214-28.893 15.526 0.69312 33.038 8.2621 44.048 31.695z"
         fill="#5f4a37" />
      <path
         id="path9883-7-7-3"
         d="m-432.04 67.347c-16.153 0.1127-42.249 3.7449-45.134 26.993 0.10313 2.2206 0.50299 1.8622 1.9145 3.4286 0.4274 0.47429 1.1384 1.4603 2.3671 2.6183-0.001-0.0275-0.006-0.0357-0.007-0.0639 3.2969-26.569 36.911-27.515 51.351-26.87 11.081 0.49468 23.247 4.7634 32.936 16.567-10.202-16.391-24.428-21.982-37.21-22.553-1.805-0.08055-3.9099-0.13694-6.2175-0.12083z"
         fill="#d2c1b1" />
    </g>
    <g
       id="g11892"
       transform="translate(-206.58 7.5761)">
      <path
         id="path10060-5-6-8-3"
         stroke-linejoin="round"
         d="m-7.6697 120.36 15.659-5.9 5.9117 15.98"
         stroke="#3c3229"
         stroke-linecap="round"
         stroke-width="7.1879"
         fill="none" />
      <path
         id="path10060-5-6-0"
         stroke-linejoin="round"
         d="m-19.469 122.36 15.66-5.91 5.9116 15.99"
         stroke="#3c3229"
         stroke-linecap="round"
         stroke-width="4.8877"
         fill="none" />
      <path
         id="rect10221-0-1"
         d="m6.3609 106.45c-0.82093 0.0563-1.387 0.2864-1.387 0.2864 0.17833 2.2246 5.102 18.884 5.1494 18.191l0.39589-5.77c1.0004 3.3779 1.8954 6.2487 1.9149 5.9637l0.39589-5.7896c1.0294 3.4848 1.9567 6.4656 1.9767 6.1743l0.36221-5.3067c1.016 3.4353 1.9288 6.3644 1.9486 6.076l0.20496-2.9987c0.8175 2.7143 1.5105 4.9212 1.5274 4.6749l1.0585-15.465c-0.6179-1.2262-1.3804-1.9672-2.1564-2.4147-1.1301-1.7187-2.5729-2.1977-3.7399-2.2631-1.0819-0.74406-2.2146-0.84308-3.0576-0.76931-1.0072-0.4564-1.977-0.44535-2.6758-0.34255-0.69344-0.2424-1.3637-0.28513-1.9177-0.24709z"
         fill="#8c8c8c" />
      <g
         fill="#b3b3b3"
         id="g19">
        <path
           id="rect10221-9"
           d="m15.157 114.8-1.0584 15.466c-0.0474 0.69246-4.9695-15.969-5.1478-18.194 0 0 4.0118-1.627 6.2062 2.7277z" />
        <path
           id="rect10221-0-3-0"
           d="m11.823 114.85-1.0584 15.466c-0.04744 0.69246-4.9695-15.969-5.1478-18.194 0 0 4.0118-1.6271 6.2062 2.7277z" />
        <path
           id="rect10221-0-4-1-6"
           d="m20.679 112.48-1.0584 15.466c-0.04744 0.69247-4.9695-15.969-5.1478-18.194 0 0 4.0118-1.6271 6.2062 2.7277z" />
        <path
           id="rect10221-0-1-0-8"
           d="m18.305 113.83-1.059 15.46c-0.04744 0.69246-4.9695-15.969-5.1478-18.194 0 0 4.0118-1.6271 6.2062 2.7277z" />
      </g>
      <g
         stroke-linejoin="round"
         stroke="#483629"
         stroke-linecap="round"
         fill="none"
         id="g25">
        <path
           id="path10060-3"
           d="m8.9464 124.53 15.659-5.9043 10.268 11.809"
           stroke-width="6.3253" />
        <path
           id="path10060-8-8"
           d="m-1.183 126.68 14.57 0.26739 5.1858 11.083"
           stroke-width="6.6128" />
        <path
           id="path10060-5-7"
           d="m-22.602 130.49 15.659-5.9043 5.9119 15.984"
           stroke-width="7.1879" />
      </g>
      <g
         id="g30">
        <path
           id="path3819-23-6-0-5-3"
           d="m-0.38016 114.93a2.5999 3.5453 0 0 1 -2.0541 3.4663 2.5999 3.5453 0 0 1 -2.9165 -2.0108 2.5999 3.5453 0 0 1 0.82941 -4.3106"
           fill="#fff" />
        <path
           id="path9883-7-6-3"
           d="m292.9 90.848a48.563 48.563 0 0 0 -7.0996 25.166 48.563 48.563 0 0 0 6.4082 23.99c22.35-4.0957 44.886-14.61 52.826-25.172-15.069-7.0373-33.64-19.465-52.135-23.984z"
           transform="translate(-324.14 -1.2536)"
           fill="#483629" />
        <path
           id="path9883-7-9"
           d="m304.36 77.84a48.563 48.563 0 0 0 -18.562 38.174 48.563 48.563 0 0 0 1.6328 12.373c18.001-0.15852 39.529-2.575 62.967-13.578-11.608-24.706-29.314-34.524-46.037-36.969z"
           transform="translate(-324.14 -1.2536)"
           fill="#5f4a37" />
        <path
           id="path9883-7-7-1"
           d="m302.33 79.596a48.563 48.563 0 0 0 -6.0976 6.4316c2.0009 0.01368 3.8947 0.05585 5.5312 0.12891 13.131 0.58622 27.548 5.6455 39.029 19.633-10.61-17.045-24.89-24.232-38.46-26.194z"
           transform="translate(-324.14 -1.2536)"
           fill="#d2c1b1" />
      </g>
    </g>
    <g
       id="g11630"
       transform="matrix(.31688 0 0 .31688 -288.73 174.86)">
      <g
         fill="none"
         id="g37">
        <circle
           id="path9247"
           cx="288.72"
           stroke="#000"
           cy="-162.93"
           r="165.71"
           stroke-width="37.6" />
        <path
           id="path3873"
           d="m345.78-2.832l86.88 236.37"
           stroke="#000"
           stroke-width="39.9" />
        <path
           id="path3873-8"
           d="m344.27 11.31l86.87 236.38"
           stroke="#c2c2c2"
           stroke-width="17.2" />
      </g>
      <path
         id="path9247-1-7-2"
         d="m221.29-281.21c-38.255 24.458-63.613 67.29-63.613 116.06 0 76.038 61.643 137.68 137.68 137.68 42.373 0 80.264-19.153 105.52-49.261-21.378 13.659-46.759 21.588-74.009 21.588-76.038 0-137.68-61.643-137.68-137.68 0-33.645 12.058-64.476 32.102-88.391z"
         fill-opacity=".51037"
         fill="#fff" />
    </g>
    <path
       id="rect6292"
       d="m-322.14-1.2536c-1.1068 0-1.9986 0.88998-1.9986 1.9968v221.72c0 1.1068 0.89179 1.9986 1.9986 1.9986h221.72c1.1068 0 1.9968-0.89179 1.9968-1.9986v-221.72c0-1.1068-0.88998-1.9968-1.9968-1.9968h-221.72zm110.86 9.2941a103.56 103.56 0 0 1 103.56 103.56 103.56 103.56 0 0 1 -103.56 103.57 103.56 103.56 0 0 1 -103.56 -103.57 103.56 103.56 0 0 1 103.56 -103.56z"
       fill="#f2f2f2"
       style="fill:#ffffff" />
  </g>
</svg>
