<?xml version="1.0" encoding="UTF-8" standalone="no"?>
<!-- Created with Inkscape (http://www.inkscape.org/) -->

<svg
   xmlns:dc="http://purl.org/dc/elements/1.1/"
   xmlns:cc="http://creativecommons.org/ns#"
   xmlns:rdf="http://www.w3.org/1999/02/22-rdf-syntax-ns#"
   xmlns:svg="http://www.w3.org/2000/svg"
   xmlns="http://www.w3.org/2000/svg"
   xmlns:sodipodi="http://sodipodi.sourceforge.net/DTD/sodipodi-0.dtd"
   xmlns:inkscape="http://www.inkscape.org/namespaces/inkscape"
   viewBox="0 0 654.21436 860"
   id="svg6211"
   version="1.1"
   inkscape:version="0.91 r13725"
   sodipodi:docname="breed_faggot_round.svg"   
   width="654.21436"
   height="860">
  <defs
     id="defs6213">
    <inkscape:perspective
       sodipodi:type="inkscape:persp3d"
       inkscape:vp_x="0 : 0.5 : 1"
       inkscape:vp_y="0 : 1.0869565 : 0"
       inkscape:vp_z="1 : 0.5 : 1"
       inkscape:persp3d-origin="0.5 : 0.33333334 : 1"
       id="perspective5798" />
  </defs>
  <sodipodi:namedview
     id="base"
     pagecolor="#ffffff"
     bordercolor="#666666"
     borderopacity="1.0"
     inkscape:pageopacity="0.0"
     inkscape:pageshadow="2"
     inkscape:zoom="0.35"
     inkscape:cx="-367.6363"
     inkscape:cy="574.6148"
     inkscape:document-units="px"
     inkscape:current-layer="layer1"
     showgrid="false"
     inkscape:window-width="1536"
     inkscape:window-height="803"
     inkscape:window-x="-8"
     inkscape:window-y="-8"
     inkscape:window-maximized="1"
     fit-margin-top="0"
     fit-margin-left="0"
     fit-margin-right="0"
     fit-margin-bottom="0" />
  <metadata
     id="metadata6216">
    <rdf:RDF>
      <cc:Work
         rdf:about="">
        <dc:format>image/svg+xml</dc:format>
        <dc:type
           rdf:resource="http://purl.org/dc/dcmitype/StillImage" />
        <dc:title />
      </cc:Work>
    </rdf:RDF>
  </metadata>
  <g
     inkscape:label="Ebene 1"
     inkscape:groupmode="layer"
     id="layer1"
     transform="translate(-25.428558,-98.076416)">
    <ellipse
       style="opacity:1;fill:#d9d4cf;fill-opacity:1;stroke:none;stroke-width:3.4000001;stroke-linecap:round;stroke-linejoin:round;stroke-miterlimit:4;stroke-dasharray:none;stroke-opacity:1"
       id="path4224"
       cx="352.53574"
       cy="528.07642"
       rx="327.10718"
       ry="430" />
    <path
       style="opacity:1;fill:#f9f9f9;fill-opacity:1;stroke:none;stroke-width:24.70000076;stroke-linecap:round;stroke-linejoin:round;stroke-miterlimit:4;stroke-dasharray:none;stroke-opacity:1"
       d="m 186.65368,184.6776 c -85.49797,44.55074 -98.255674,151.92265 -65.47385,152.73248 -29.111612,5.11221 -52.679134,24.49718 -61.151083,81.537 -8.471948,57.03983 50.385453,127.62512 120.801353,128.60408 69.84305,0.971 122.18966,-32.28735 125.1816,-78.55426 4.6734,-72.26874 -31.08927,-94.97767 -33.67692,-100.11118 2.77003,4.46724 33.9606,25.30946 64.95358,29.45713 30.99299,4.14767 64.48305,0.26559 79.67294,-11.9402 -6.35813,11.25284 -3.89034,40.88418 8.32491,51.30129 -0.49131,1.22574 -1.04012,2.41704 -1.48705,3.66733 -11.78377,32.96932 -7.21381,60.26678 27.24516,71.96099 29.55764,10.03125 187.62228,35.04344 200.67879,-46.30304 8.51237,-53.03503 -8.41774,-63.41923 -23.89077,-74.98452 15.88807,-25.75146 6.05465,-59.75445 -21.08332,-98.63422 -29.03438,-41.59668 -62.40313,-55.78147 -74.42706,-48.92934 8.27319,-8.58115 2.93236,-21.28385 -4.3845,-30.4385 -7.31686,-9.15466 -100.46495,-66.73146 -154.7868,-32.33699 -8.65574,-17.43109 -100.99901,-41.5788 -186.49698,2.97195 z"
       id="path5078-5"
       inkscape:connector-curvature="0"
       sodipodi:nodetypes="zczssczccccscsczcz" />
    <ellipse
       ry="12.765801"
       rx="9.0739622"
       cy="123.74545"
       cx="-474.95822"
       style="fill:#3d3125;fill-opacity:1;stroke:none"
       id="path3819"
       transform="matrix(-0.04105256,-0.99915699,0.99990709,0.0136309,0,0)" />
    <ellipse
       ry="12.765801"
       rx="9.0739622"
       cy="123.13367"
       cx="-500.41782"
       style="fill:#3d3125;fill-opacity:1;stroke:none"
       id="path3819-23"
       transform="matrix(-0.04105256,-0.99915699,0.99990709,0.0136309,0,0)" />
    <path
       style="opacity:1;fill:#ececec;fill-opacity:1;stroke:none;stroke-width:24.70000076;stroke-linecap:round;stroke-linejoin:round;stroke-miterlimit:4;stroke-dasharray:none;stroke-opacity:1"
       d="m 508.03206,204.12436 c 12.41215,12.98374 20.87124,33.78545 10.73268,47.43592 5.49854,-2.59874 14.09015,-6.73384 15.7451,-14.21032 1.65496,-7.47647 -2.57567,-14.13347 -6.95806,-19.61658 -1.80108,-2.25348 -8.97556,-7.53249 -19.51972,-13.60902 z m 50.89801,50.01328 c 8.6058,7.51545 17.51494,17.27806 26.04082,29.49284 26.33966,37.73605 35.88446,70.73932 20.46377,95.73326 15.01786,11.22508 31.4498,21.30367 23.18783,72.77859 -12.67243,78.95352 -166.08632,54.67681 -194.77446,44.94064 -1.38673,-0.47061 -2.70627,-0.97749 -3.99418,-1.49948 5.19169,6.41148 12.90807,11.59654 23.603,15.22603 28.68815,9.73617 182.10202,34.01098 194.77445,-44.94256 8.26197,-51.47489 -8.16997,-61.55349 -23.18783,-72.77857 15.42069,-24.99393 5.87589,-57.99531 -20.46377,-95.73136 -15.30934,-21.93324 -31.8533,-35.99858 -45.64963,-43.21939 z m -310.67875,96.68632 c 2.51153,4.9825 37.22296,33.08447 32.68705,103.2273 -2.90393,44.90588 -53.71071,77.18629 -121.49921,76.24386 -19.46215,-0.27058 -38.01111,-6.02528 -54.40385,-15.38905 20.41758,17.22879 46.29194,28.73021 74.01267,29.1156 67.78849,0.94244 118.59527,-31.33798 121.49919,-76.24387 4.53593,-70.14282 -30.17551,-98.24479 -32.68704,-103.22729 2.68855,4.33583 41.59799,27.23419 71.62871,31.62097 18.99769,2.77511 53.83392,1.86477 77.53753,-11.07495 3.55713,-7.56664 10.14913,-12.96496 19.16744,-18.54043 -27.6225,18.03391 -85.97996,21.68224 -116.06124,17.65659 -30.08126,-4.02566 -69.19271,-29.0529 -71.88125,-33.38873 z"
       id="path5078-5-5"
       inkscape:connector-curvature="0"
       sodipodi:nodetypes="cczsccscscccscsccsscsscsccsc" />
    <path
       style="fill:#ffff00;fill-rule:evenodd;stroke:none;stroke-width:1px;stroke-linecap:butt;stroke-linejoin:miter;stroke-opacity:1"
       d="M 115.63181,335.76856 123.69972,538.38333 56.279362,488.13463 95.743528,456.20044 79.375403,427.34466 100.4291,406.53734 95.777357,335.352 Z"
       id="crown"
       inkscape:connector-curvature="0"
       sodipodi:nodetypes="cccccccc" />
    <path
       style="opacity:1;fill:#ececec;fill-opacity:1;stroke:none;stroke-width:24.70000076;stroke-linecap:round;stroke-linejoin:round;stroke-miterlimit:4;stroke-dasharray:none;stroke-opacity:1"
       d="m 330.68573,165.9058 c 7.61324,0.16484 39.00799,10.68487 40.13424,18.15992 -12.91363,8.92732 -22.09458,31.08592 -25.09974,44.72649 8.93201,-42.70619 7.90871,-52.31964 -15.0345,-62.88641 z"
       id="rect5938"
       inkscape:connector-curvature="0"
       sodipodi:nodetypes="cccc" />
  </g>
</svg>
