<?xml version="1.0" encoding="UTF-8" standalone="no"?>
<!-- Created with Inkscape (http://www.inkscape.org/) -->

<svg
   xmlns:dc="http://purl.org/dc/elements/1.1/"
   xmlns:cc="http://creativecommons.org/ns#"
   xmlns:rdf="http://www.w3.org/1999/02/22-rdf-syntax-ns#"
   xmlns:svg="http://www.w3.org/2000/svg"
   xmlns="http://www.w3.org/2000/svg"
   xmlns:sodipodi="http://sodipodi.sourceforge.net/DTD/sodipodi-0.dtd"
   xmlns:inkscape="http://www.inkscape.org/namespaces/inkscape"
   viewBox="0 0 654.21436 860"
   id="svg6211"
   version="1.1"
   inkscape:version="0.91 r13725"
   sodipodi:docname="breed_faggot_cocoon.svg"   
   width="654.21436"
   height="860">
  <defs
     id="defs6213">
    <inkscape:perspective
       sodipodi:type="inkscape:persp3d"
       inkscape:vp_x="0 : 0.5 : 1"
       inkscape:vp_y="0 : 1.0869565 : 0"
       inkscape:vp_z="1 : 0.5 : 1"
       inkscape:persp3d-origin="0.5 : 0.33333334 : 1"
       id="perspective5798" />
  </defs>
  <sodipodi:namedview
     id="base"
     pagecolor="#ffffff"
     bordercolor="#666666"
     borderopacity="1.0"
     inkscape:pageopacity="0.0"
     inkscape:pageshadow="2"
     inkscape:zoom="0.49497475"
     inkscape:cx="-52.832501"
     inkscape:cy="381.18535"
     inkscape:document-units="px"
     inkscape:current-layer="layer1"
     showgrid="false"
     inkscape:window-width="1536"
     inkscape:window-height="803"
     inkscape:window-x="-8"
     inkscape:window-y="-8"
     inkscape:window-maximized="1"
     fit-margin-top="0"
     fit-margin-left="0"
     fit-margin-right="0"
     fit-margin-bottom="0"
     showguides="false" />
  <metadata
     id="metadata6216">
    <rdf:RDF>
      <cc:Work
         rdf:about="">
        <dc:format>image/svg+xml</dc:format>
        <dc:type
           rdf:resource="http://purl.org/dc/dcmitype/StillImage" />
        <dc:title></dc:title>
      </cc:Work>
    </rdf:RDF>
  </metadata>
  <g
     inkscape:label="Ebene 1"
     inkscape:groupmode="layer"
     id="layer1"
     transform="translate(-25.428558,-98.076416)">
    <ellipse
       style="opacity:1;fill:#d9d4cf;fill-opacity:1;stroke:none;stroke-width:3.4000001;stroke-linecap:round;stroke-linejoin:round;stroke-miterlimit:4;stroke-dasharray:none;stroke-opacity:1"
       id="path4224"
       cx="352.53574"
       cy="528.07642"
       rx="327.10718"
       ry="430" />
    <path
       style="fill:none;stroke:#000000;stroke-width:3.0378747px;stroke-linecap:butt;stroke-linejoin:miter;stroke-opacity:1"
       d="m 498.31033,729.43262 c 65.87623,90.95904 70.11583,-143.09643 67.52173,-207.94313"
       id="path4020"
       inkscape:connector-curvature="0"
       sodipodi:nodetypes="cc" />
    <path
       sodipodi:nodetypes="cc"
       style="fill:none;stroke:#000000;stroke-width:3.0378747px;stroke-linecap:butt;stroke-linejoin:miter;stroke-opacity:1"
       d="m 508.04009,773.15029 c 53.8046,19.18881 68.11317,-153.39855 49.0758,-223.04327"
       id="path4022"
       inkscape:connector-curvature="0" />
    <ellipse
       cy="-556.71234"
       cx="-548.31207"
       style="fill:#000000;fill-opacity:1;stroke:none"
       id="path4143-5"
       transform="matrix(0,-1,-1,0,0,0)"
       rx="6.2453866"
       ry="6.0313468" />
    <path
       style="fill:#f3e4aa;fill-opacity:1;stroke:none"
       d="m 550.72073,601.24459 c 0,142.90131 -78.43436,258.70084 -175.29198,258.70084 -96.85761,0 -175.39024,-115.79953 -175.39024,-258.70084 l 0,-213.32343 c 0,-142.9013 78.53263,-258.7008 175.39024,-258.7008 96.85762,0 175.29198,115.7995 175.29198,258.7008 z"
       id="path2996"
       inkscape:connector-curvature="0"
       sodipodi:nodetypes="csccscc" />
    <path
       style="fill:#a38567;fill-opacity:1;stroke:none"
       d="m 550.72073,601.45581 c 0,15.28783 -0.93403,30.2021 -2.65593,44.76092 l -345.37037,0 c -1.72311,-14.55563 -2.65592,-29.47668 -2.65592,-44.76092 l 0,-103.45571 350.68222,0 0,103.45571 z"
       id="path2996-1"
       inkscape:connector-curvature="0" />
    <path
       style="fill:#a38567;fill-opacity:1;stroke:none"
       d="m 549.68789,363.32955 -348.61649,0 0,-5.30226 c 4.07429,-51.96174 18.55627,-99.22366 40.33091,-137.11885 l 267.65952,0 c 22.49457,39.18091 37.15366,88.37248 40.62606,142.42111 z"
       id="path2996-1-4"
       inkscape:connector-curvature="0" />
    <ellipse
       ry="23.989532"
       rx="18.21664"
       cy="-452.25449"
       cx="-719.38861"
       style="fill:#3d3125;fill-opacity:1;stroke:none"
       id="path3819-8"
       transform="matrix(0,-1,-1,0,0,0)" />
    <path
       style="fill:#f9f9f9;fill-opacity:1;stroke:none"
       d="M 461.60932,644.75107 C 471.77396,602.94243 488.8292,497.86391 485.95951,450.6633 488.74878,349.02855 459.38164,309.97962 450.07685,208.34016 443.73602,179.26945 418.7234,166.8923 403.9162,184.66803 332.78716,231.67805 325.63837,375.102 352.01201,494.19706 c 7.81183,42.30021 52.26075,62.97207 68.77417,156.03568"
       id="path3884-8"
       inkscape:connector-curvature="0"
       sodipodi:nodetypes="cccccc" />
    <ellipse
       ry="23.989532"
       rx="18.21664"
       cy="-453.40414"
       cx="-770.50085"
       style="fill:#3d3125;fill-opacity:1;stroke:none"
       id="path3819-23-7"
       transform="matrix(0,-1,-1,0,0,0)" />
    <ellipse
       cy="-565.2113"
       cx="-520.95605"
       style="fill:#000000;fill-opacity:1;stroke:none"
       id="path4143-5-1"
       transform="matrix(0,-1,-1,0,0,0)"
       rx="6.2453866"
       ry="6.0313468" />
    <path
       style="fill:#ffff00;fill-opacity:1;stroke:#ffff00;stroke-width:10.72927952;stroke-linecap:round;stroke-miterlimit:4;stroke-dasharray:none;stroke-opacity:0"
       d="m 592.25027,684.46236 -22.37744,22.55444 17.21801,53.09381 -50.94891,22.57111 34.65116,60.79783 -93.52707,-41.69352 67.46157,-151.32962 z"
       id="crown"
       inkscape:connector-curvature="0"
       sodipodi:nodetypes="cccccccc" />
  </g>
</svg>
