<?xml version="1.0" encoding="UTF-8" standalone="no"?>
<!-- Created with Inkscape (http://www.inkscape.org/) -->

<svg
   xmlns:dc="http://purl.org/dc/elements/1.1/"
   xmlns:cc="http://creativecommons.org/ns#"
   xmlns:rdf="http://www.w3.org/1999/02/22-rdf-syntax-ns#"
   xmlns:svg="http://www.w3.org/2000/svg"
   xmlns="http://www.w3.org/2000/svg"
   xmlns:sodipodi="http://sodipodi.sourceforge.net/DTD/sodipodi-0.dtd"
   xmlns:inkscape="http://www.inkscape.org/namespaces/inkscape"
   viewBox="0 0 654.21436 860"
   id="svg6211"
   version="1.1"
   inkscape:version="0.91 r13725"
   sodipodi:docname="breed_faggot_stretched.svg"   
   width="654.21436"
   height="860">
  <defs
     id="defs6213">
    <inkscape:perspective
       sodipodi:type="inkscape:persp3d"
       inkscape:vp_x="0 : 0.5 : 1"
       inkscape:vp_y="0 : 1.0869565 : 0"
       inkscape:vp_z="1 : 0.5 : 1"
       inkscape:persp3d-origin="0.5 : 0.33333334 : 1"
       id="perspective5798" />
  </defs>
  <sodipodi:namedview
     id="base"
     pagecolor="#ffffff"
     bordercolor="#666666"
     borderopacity="1.0"
     inkscape:pageopacity="0.0"
     inkscape:pageshadow="2"
     inkscape:zoom="0.49497475"
     inkscape:cx="489.12677"
     inkscape:cy="334.07511"
     inkscape:document-units="px"
     inkscape:current-layer="layer1"
     showgrid="false"
     inkscape:window-width="1536"
     inkscape:window-height="803"
     inkscape:window-x="-8"
     inkscape:window-y="-8"
     inkscape:window-maximized="1"
     fit-margin-top="0"
     fit-margin-left="0"
     fit-margin-right="0"
     fit-margin-bottom="0"
     showguides="false" />
  <metadata
     id="metadata6216">
    <rdf:RDF>
      <cc:Work
         rdf:about="">
        <dc:format>image/svg+xml</dc:format>
        <dc:type
           rdf:resource="http://purl.org/dc/dcmitype/StillImage" />
        <dc:title />
      </cc:Work>
    </rdf:RDF>
  </metadata>
  <g
     inkscape:label="Ebene 1"
     inkscape:groupmode="layer"
     id="layer1"
     transform="translate(-25.428558,-98.076416)">
    <ellipse
       style="opacity:1;fill:#d9d4cf;fill-opacity:1;stroke:none;stroke-width:3.4000001;stroke-linecap:round;stroke-linejoin:round;stroke-miterlimit:4;stroke-dasharray:none;stroke-opacity:1"
       id="path4224"
       cx="352.53574"
       cy="528.07642"
       rx="327.10718"
       ry="430" />
    <path
       style="opacity:1;fill:#f9f9f9;fill-opacity:1;stroke:none;stroke-width:24.70000076;stroke-linecap:round;stroke-linejoin:round;stroke-miterlimit:4;stroke-dasharray:none;stroke-opacity:1"
       d="M 515.52172,199.1944 C 450.36051,128.14029 343.34527,143.60719 351.0476,175.4816 c -12.47266,-26.79652 -37.29683,-44.5438 -94.58576,-37.96408 -57.28895,6.57972 -110.23569,81.70042 -92.95631,149.97033 17.13879,67.71452 71.03004,90.98055 116.77661,83.44194 46.26706,-7.62438 75.19525,-37.4691 79.4841,-41.29723 -3.59808,3.83185 -21.3717,32.92542 -15.92789,77.86441 5.4438,44.93899 20.71862,54.85458 36.43994,66.3678 -38.02137,18.48924 -53.8156,107.43551 -29.40149,175.97385 -21.0091,-7.98601 -52.07162,67.91824 -29.55398,126.10838 -34.89578,-2.84916 -56.67681,42.55774 -58.22028,74.52671 -1.54346,31.96897 27.8739,76.7735 90.89105,76.50499 47.5256,-0.2025 65.89813,-73.96635 61.47326,-80.93121 97.02805,-22.85382 172.83804,-227.64765 131.75462,-297.48487 10.43002,5.77032 21.31757,-2.67622 28.26655,-12.11317 6.94897,-9.43694 38.45539,-114.31306 -8.82664,-157.88199 14.59687,-12.8723 14.02157,-108.31894 -51.13966,-179.37306 z"
       id="path5078-5"
       inkscape:connector-curvature="0"
       sodipodi:nodetypes="zczssczccczscczcz" />
    <ellipse
       ry="12.765801"
       rx="9.0739622"
       cy="230.96036"
       cx="-295.35547"
       style="fill:#3d3125;fill-opacity:1;stroke:none"
       id="path3819"
       transform="matrix(-0.04105256,-0.99915699,0.99990709,0.0136309,0,0)" />
    <ellipse
       ry="12.765801"
       rx="9.0739622"
       cy="230.34857"
       cx="-320.81506"
       style="fill:#3d3125;fill-opacity:1;stroke:none"
       id="path3819-23"
       transform="matrix(-0.04105256,-0.99915699,0.99990709,0.0136309,0,0)" />
    <path
       style="opacity:1;fill:#ececec;fill-opacity:1;stroke:none;stroke-width:24.70000076;stroke-linecap:round;stroke-linejoin:round;stroke-miterlimit:4;stroke-dasharray:none;stroke-opacity:1"
       d="m 380.83118,474.47676 c 3.95252,3.73627 46.99334,25.03885 61.15223,28.18268 -20.41363,1.69517 -37.90248,-10.88412 -48.04136,-10.91466 -9.97202,-0.03 -24.38603,-4.33361 -36.13226,6.98859 5.59359,-11.37234 16.0855,-21.3417 23.02139,-24.25661 z"
       id="rect5938"
       inkscape:connector-curvature="0"
       sodipodi:nodetypes="ccscc" />
    <path
       style="opacity:1;fill:#ececec;fill-opacity:1;stroke:none;stroke-width:24.70000076;stroke-linecap:round;stroke-linejoin:round;stroke-miterlimit:4;stroke-dasharray:none;stroke-opacity:1"
       d="m 351.22632,185.52244 c -0.5014,-2.07503 -1.06316,-6.44102 -0.60336,-8.35107 -2.2416,-2.38214 -7.48266,-12.31479 -10.20906,-14.33742 4.03536,6.41361 8.14927,17.0188 10.81242,22.68849 z m 151.63117,12.43178 c 61.5966,68.38277 62.0604,159.28864 48.0759,171.62084 45.605,42.02362 15.2157,143.18081 8.5131,152.2831 -6.7024,9.1022 -17.203,17.24929 -27.263,11.68365 39.6262,67.36025 -38.4943,274.89016 -132.081,296.93336 4.2679,6.7179 -10.69173,81.35627 -56.53173,81.55157 -15.4313,0.066 -27.51417,1.83979 -37.01719,-1.7238 13.64908,7.35067 24.66599,13.5175 48.70839,13.4149 45.84,-0.1953 60.79963,-74.83367 56.53173,-81.55147 93.5867,-22.0433 171.7072,-229.5731 132.081,-296.93336 10.06,5.56566 20.5625,-2.58142 27.265,-11.68367 6.7025,-9.10223 37.0918,-110.25944 -8.5132,-152.28309 14.0792,-12.41575 13.5234,-104.47713 -49.3268,-173.01112 -3.3704,-3.67526 -6.8629,-7.09522 -10.4422,-10.30091 z m -119.56426,97.23474 c -4.89441,2.87157 -34.05305,48.62909 -102.55012,62.3161 -24.28202,4.85204 -69.75481,-1.33839 -89.83045,-18.01004 21.61031,25.82786 62.03665,32.821 91.4201,27.68092 32.45877,-5.67804 57.42032,-22.74523 76.60199,-41.0802 6.93251,-14.15562 22.35988,-28.77835 24.35848,-30.90678 z"
       id="path5078-5-7"
       inkscape:connector-curvature="0"
       sodipodi:nodetypes="ccccccsccccsccscsccscscc" />
    <path
       style="fill:#ffff00;fill-rule:evenodd;stroke:none;stroke-width:1px;stroke-linecap:butt;stroke-linejoin:miter;stroke-opacity:1"
       d="m 214.20324,151.52681 8.06791,223.99938 -67.42036,-55.55211 39.46417,-35.30462 -16.36813,-31.90131 21.0537,-23.00339 -4.65174,-78.69847 z"
       id="crown"
       inkscape:connector-curvature="0"
       sodipodi:nodetypes="cccccccc" />
    <path
       style="opacity:1;fill:#ececec;fill-opacity:1;stroke:none;stroke-width:24.70000076;stroke-linecap:round;stroke-linejoin:round;stroke-miterlimit:4;stroke-dasharray:none;stroke-opacity:1"
       d="m 350.87517,650.39335 c 2.74985,2.5994 33.34644,17.54426 43.19706,19.73148 -14.20217,1.17937 -35.61363,-9.88671 -42.64097,-10.49773 -10.50916,-0.91376 -18.86774,3.47755 -21.52251,8.52318 1.20164,-2.8188 9.64275,-19.46005 20.96642,-17.75693 z"
       id="rect5938-0"
       inkscape:connector-curvature="0"
       sodipodi:nodetypes="ccscc" />
  </g>
</svg>
