<?xml version="1.0" encoding="UTF-8" standalone="no"?>
<!-- Created with Inkscape (http://www.inkscape.org/) -->

<svg
   xmlns:dc="http://purl.org/dc/elements/1.1/"
   xmlns:cc="http://creativecommons.org/ns#"
   xmlns:rdf="http://www.w3.org/1999/02/22-rdf-syntax-ns#"
   xmlns:svg="http://www.w3.org/2000/svg"
   xmlns="http://www.w3.org/2000/svg"
   xmlns:sodipodi="http://sodipodi.sourceforge.net/DTD/sodipodi-0.dtd"
   xmlns:inkscape="http://www.inkscape.org/namespaces/inkscape"
   viewBox="0 0 654.21436 860"
   id="svg6211"
   version="1.1"
   inkscape:version="0.91 r13725"
   sodipodi:docname="breed_eclosion.svg"
   width="654.21436"
   height="860">
  <defs
     id="defs6213">
    <inkscape:perspective
       sodipodi:type="inkscape:persp3d"
       inkscape:vp_x="0 : 0.5 : 1"
       inkscape:vp_y="0 : 1.0869565 : 0"
       inkscape:vp_z="1 : 0.5 : 1"
       inkscape:persp3d-origin="0.5 : 0.33333334 : 1"
       id="perspective5798" />
  </defs>
  <sodipodi:namedview
     id="base"
     pagecolor="#ffffff"
     bordercolor="#666666"
     borderopacity="1.0"
     inkscape:pageopacity="0.0"
     inkscape:pageshadow="2"
     inkscape:zoom="0.49497475"
     inkscape:cx="-52.832501"
     inkscape:cy="461.99756"
     inkscape:document-units="px"
     inkscape:current-layer="layer1"
     showgrid="false"
     inkscape:window-width="1536"
     inkscape:window-height="803"
     inkscape:window-x="-8"
     inkscape:window-y="-8"
     inkscape:window-maximized="1"
     fit-margin-top="0"
     fit-margin-left="0"
     fit-margin-right="0"
     fit-margin-bottom="0"
     showguides="false" />
  <metadata
     id="metadata6216">
    <rdf:RDF>
      <cc:Work
         rdf:about="">
        <dc:format>image/svg+xml</dc:format>
        <dc:type
           rdf:resource="http://purl.org/dc/dcmitype/StillImage" />
        <dc:title></dc:title>
      </cc:Work>
    </rdf:RDF>
  </metadata>
  <g
     inkscape:label="Ebene 1"
     inkscape:groupmode="layer"
     id="layer1"
     transform="translate(-25.428558,-98.076416)">
    <g
       transform="matrix(0,-12.218763,12.218763,0,-2741.0414,4899.2708)"
       id="g7360">
      <path
         sodipodi:nodetypes="czcc"
         inkscape:connector-curvature="0"
         id="rect3997"
         d="m 370.92577,253.63508 c 0,0 8.7911,1.79959 8.79665,2.1184 0.006,0.31881 -8.75067,2.43147 -8.75067,2.43147 z"
         style="fill:#3d3125;fill-opacity:1;stroke:none" />
      <path
         inkscape:connector-curvature="0"
         id="path4022-1"
         d="m 333.752,245.29189 c -1.92627,-3.01545 -5.77766,-5.72801 -9.45956,-4.17694"
         style="fill:none;stroke:#000000;stroke-width:0.24323325px;stroke-linecap:butt;stroke-linejoin:miter;stroke-opacity:1" />
      <path
         sodipodi:nodetypes="csccscc"
         inkscape:connector-curvature="0"
         id="path2996-2"
         d="m 344.21585,241.63598 c -8.80882,0 -15.94699,6.39047 -15.94699,14.28196 0,7.89151 7.13817,14.28996 15.94699,14.28996 l 13.14979,0 c 8.80881,0 15.94699,-6.39845 15.94699,-14.28996 0,-7.89149 -7.13818,-14.28196 -15.94699,-14.28196 z"
         style="fill:#e3c33c;fill-opacity:1;stroke:none" />
      <ellipse
         ry="8.0357141"
         rx="5.8928571"
         cy="386.82648"
         cx="383.39285"
         transform="matrix(0.24323327,0,0,0.24323327,243.04556,156.5791)"
         id="path3819"
         style="fill:#3d3125;fill-opacity:1;stroke:none" />
      <circle
         r="2.0203052"
         cy="349.80109"
         cx="339.91632"
         transform="matrix(0.24323327,0,0,0.24323327,242.67572,150.37584)"
         id="path4143"
         style="fill:#3d3125;fill-opacity:1;stroke:none" />
      <circle
         r="2.0203052"
         cy="349.80109"
         cx="339.91632"
         transform="matrix(0.24323327,0,0,0.24323327,241.2193,156.12405)"
         id="path4143-5-6"
         style="fill:#3d3125;fill-opacity:1;stroke:none" />
      <path
         inkscape:connector-curvature="0"
         id="path2996-1-49"
         d="m 344.20282,241.63598 c -0.94239,0 -1.86173,0.0761 -2.75919,0.21639 l 0,28.13916 c 0.89726,0.14041 1.81703,0.21637 2.75919,0.21637 l 6.37727,0 0,-28.57192 -6.37727,0 z"
         style="fill:#3d3125;fill-opacity:1;stroke:none" />
      <path
         inkscape:connector-curvature="0"
         id="path2996-1-4-4"
         d="m 358.88153,241.72014 0,28.40361 0.32684,0 c 3.20306,-0.33194 6.11641,-1.51187 8.45236,-3.28597 l 0,-21.80762 c -2.41521,-1.83276 -5.4475,-3.0271 -8.7792,-3.31002 z"
         style="fill:#3d3125;fill-opacity:1;stroke:none" />
      <ellipse
         ry="8.0357141"
         rx="5.8928571"
         cy="386.82648"
         cx="383.39285"
         transform="matrix(0.24323327,0,0,0.24323327,239.02388,156.48542)"
         id="path3819-23"
         style="fill:#3d3125;fill-opacity:1;stroke:none" />
      <path
         sodipodi:nodetypes="cccccc"
         inkscape:connector-curvature="0"
         id="path3884-8-2"
         d="m 346.44524,251.38239 c 2.88421,-1.59513 10.26505,-4.69078 13.74406,-4.94846 7.35186,-1.51966 10.17859,-2.08908 17.71865,-2.30779 2.21376,0.33324 3.50286,2.87541 2.43944,4.68158 -2.31573,8.21572 -12.16984,13.96578 -21.24513,12.55779 -3.19921,-0.33275 -5.39375,-4.86621 -12.42178,-5.52587"
         style="fill:#ffffff;fill-opacity:1;stroke:none" />
      <path
         sodipodi:nodetypes="cccccccc"
         inkscape:connector-curvature="0"
         id="crown"
         d="m 326.58161,235.18362 7.40617,5.5503 3.07933,-8.72783 7.40618,5.5503 3.07931,-8.72782 3.92763,12.96079 -20.97098,6.35505 z"
         style="fill:#ffff00;fill-opacity:1;stroke:#ffff00;stroke-width:1.41900003;stroke-linecap:round;stroke-miterlimit:4;stroke-dasharray:none;stroke-opacity:0" />
      <path
         sodipodi:nodetypes="cc"
         inkscape:connector-curvature="0"
         id="path4020-8"
         d="m 337.19185,245.90613 c -1.68821,-3.93701 -5.3764,-11.07438 -11.54804,-10.44236"
         style="fill:none;stroke:#000000;stroke-width:0.24323325px;stroke-linecap:butt;stroke-linejoin:miter;stroke-opacity:1" />
    </g>
    <path
       style="opacity:1;fill:#d9d4cf;fill-opacity:1;stroke:none;stroke-width:3.4000001;stroke-linecap:round;stroke-linejoin:round;stroke-miterlimit:4;stroke-dasharray:none;stroke-opacity:1"
       d="M 327.10742 0 A 327.10718 430 0 0 0 0 430 A 327.10718 430 0 0 0 11.609375 543.20117 A 430 327.10718 0 0 0 299.00586 627.48242 A 430 327.10718 0 0 0 650.83008 488.14648 A 327.10718 430 0 0 0 654.21484 430 A 327.10718 430 0 0 0 327.10742 0 z "
       id="path4224"
       transform="translate(25.428558,98.076416)" />
  </g>
</svg>
