<?xml version="1.0" encoding="UTF-8" standalone="no"?>
<!-- Created with Inkscape (http://www.inkscape.org/) -->

<svg
   xmlns:osb="http://www.openswatchbook.org/uri/2009/osb"
   xmlns:dc="http://purl.org/dc/elements/1.1/"
   xmlns:cc="http://creativecommons.org/ns#"
   xmlns:rdf="http://www.w3.org/1999/02/22-rdf-syntax-ns#"
   xmlns:svg="http://www.w3.org/2000/svg"
   xmlns="http://www.w3.org/2000/svg"
   xmlns:sodipodi="http://sodipodi.sourceforge.net/DTD/sodipodi-0.dtd"
   xmlns:inkscape="http://www.inkscape.org/namespaces/inkscape"
   viewBox="0 0 216.21121 330.51478"
   width="216.21121"
   height="330.51477"
   id="svg4598"
   version="1.1"
   inkscape:version="0.91 r13725"
   sodipodi:docname="port_MA.svg"
   inkscape:export-filename="C:\xampp\htdocs\stockkarte\img\port_jan.png"
   inkscape:export-xdpi="149"
   inkscape:export-ydpi="149">
  <defs
     id="defs4600">
    <linearGradient
       id="linearGradient4197"
       osb:paint="solid">
      <stop
         style="stop-color:#aa7378;stop-opacity:1;"
         offset="0"
         id="stop4199" />
    </linearGradient>
  </defs>
  <sodipodi:namedview
     id="base"
     pagecolor="#ffffff"
     bordercolor="#666666"
     borderopacity="1.0"
     inkscape:pageopacity="0.0"
     inkscape:pageshadow="2"
     inkscape:zoom="1.979899"
     inkscape:cx="-54.326814"
     inkscape:cy="166.22826"
     inkscape:document-units="px"
     inkscape:current-layer="layer1"
     showgrid="false"
     fit-margin-top="0"
     fit-margin-left="0"
     fit-margin-right="0"
     fit-margin-bottom="0"
     inkscape:window-width="2560"
     inkscape:window-height="1017"
     inkscape:window-x="-8"
     inkscape:window-y="-8"
     inkscape:window-maximized="1"
     showguides="true"
     inkscape:guide-bbox="true" />
  <metadata
     id="metadata4603">
    <rdf:RDF>
      <cc:Work
         rdf:about="">
        <dc:format>image/svg+xml</dc:format>
        <dc:type
           rdf:resource="http://purl.org/dc/dcmitype/StillImage" />
        <dc:title />
      </cc:Work>
    </rdf:RDF>
  </metadata>
  <g
     inkscape:label="Ebene 1"
     inkscape:groupmode="layer"
     id="layer1"
     transform="translate(-71.375569,-59.489934)">
    <path
       style="opacity:1;fill:#f8dfa6;fill-opacity:1"
       d="m 155.99397,240.69782 -1.08016,31.9833 -37.53325,10.09411 c -15.56405,4.18648 -29.159485,16.93231 -30.480961,28.58132 l -2.21006,19.44318 c -1.69063,11.25027 -0.732509,24.15572 -0.732509,34.19337 0,13.63219 36.53697,24.60825 81.9324,24.60825 l 27.16594,0 c 45.39543,0 81.9324,-10.97606 81.9324,-24.60825 -0.328,-9.08055 0.0316,-19.37063 0.79463,-27.69979 l -2.94259,-25.93676 c -1.32146,-11.64901 -14.91691,-24.39484 -30.48096,-28.58132 l -37.93051,-10.20588 -1.08019,-31.87153 z"
       id="rect4990-9-6-3"
       inkscape:connector-curvature="0"
       sodipodi:nodetypes="ccccccssccscccc" />
    <path
       style="opacity:1;fill:#f8dfa6;fill-opacity:1"
       d="m 178.22245,97.33157 a 57.053452,57.053452 0 0 0 -55.56111,57.03861 57.053452,57.053452 0 0 0 -0.0381,0.956 57.053452,57.053452 0 0 0 0.0128,0.23591 57.05298,102.68984 0 0 0 -0.0128,0.53396 57.05298,102.68984 0 0 0 0.75737,14.2286 18.863068,10.04535 72.918293 0 0 -3.47641,0.0991 18.863068,10.04535 72.918293 0 0 -3.72477,21.20635 18.863068,10.04535 72.918293 0 0 14.38998,14.92387 57.05298,102.68984 0 0 0 49.57664,50.49539 57.05298,102.68984 0 0 0 48.59575,-50.50776 10.04535,18.863068 17.081707 0 0 14.41486,-14.9115 10.04535,18.863068 17.081707 0 0 -3.72479,-21.20635 10.04535,18.863068 17.081707 0 0 -3.42676,-0.11185 57.05298,102.68984 0 0 0 0.72011,-15.94196 l -0.038,-1.92451 A 57.053452,57.053452 0 0 0 178.22081,97.331321 Z"
       id="path4355-1-7-3"
       inkscape:connector-curvature="0" />
    <path
       style="fill:#cecd48;fill-opacity:1;fill-rule:evenodd;stroke:#cecd48;stroke-width:6.35693073px;stroke-linecap:butt;stroke-linejoin:miter;stroke-opacity:1"
       d="m 126.7014,168.26071 c 0,0 2.66102,-18.0938 6.91533,-27.19974 7.25791,-13.65837 13.21579,-8.29938 25.26814,-8.60718 12.05245,-0.30768 27.72017,-0.53374 35.63568,-3.06545 15.7585,-4.42317 27.28112,11.15151 33.0182,21.93792 3.30164,6.48423 1.77916,23.01177 5.52712,18.45866 8.3041,-15.53419 -7.77413,-54.55647 -14.96973,-63.52614 -34.2816,-6.10171 -18.6186,-23.619168 -50.73268,-13.224343 -21.19053,7.532583 -37.08475,26.470083 -39.50144,31.708643 -2.41668,5.23856 -8.69789,41.85995 -1.16062,43.51758 z"
       id="path5284-7-7-7-2"
       inkscape:connector-curvature="0"
       sodipodi:nodetypes="cczccccczcc" />
    <path
       style="opacity:1;fill:#a43535;fill-opacity:1;stroke:#202020;stroke-width:2.88643742;stroke-linecap:round;stroke-miterlimit:4;stroke-dasharray:none;stroke-opacity:1"
       id="path5523-5-5"
       sodipodi:type="arc"
       sodipodi:cx="162.93593"
       sodipodi:cy="171.31529"
       sodipodi:rx="1.3891182"
       sodipodi:ry="2.6346123"
       sodipodi:start="0"
       sodipodi:end="6.2494481"
       sodipodi:open="true"
       d="m 164.32505,171.31529 a 1.3891182,2.6346123 0 0 1 -1.37741,2.63452 1.3891182,2.6346123 0 0 1 -1.40063,-2.59008 1.3891182,2.6346123 0 0 1 1.35377,-2.67821 1.3891182,2.6346123 0 0 1 1.42348,2.5449" />
    <path
       style="opacity:1;fill:#a43535;fill-opacity:1;stroke:#202020;stroke-width:2.88643742;stroke-linecap:round;stroke-miterlimit:4;stroke-dasharray:none;stroke-opacity:1"
       id="path5523-3-7-8"
       sodipodi:type="arc"
       sodipodi:cx="193.95944"
       sodipodi:cy="171.31529"
       sodipodi:rx="1.3891182"
       sodipodi:ry="2.6346123"
       sodipodi:start="0"
       sodipodi:end="6.2494481"
       sodipodi:open="true"
       d="m 195.34856,171.31529 a 1.3891182,2.6346123 0 0 1 -1.3774,2.63452 1.3891182,2.6346123 0 0 1 -1.40064,-2.59008 1.3891182,2.6346123 0 0 1 1.35378,-2.67821 1.3891182,2.6346123 0 0 1 1.42347,2.5449" />
    <path
       style="opacity:1;fill:#f6d281;fill-opacity:1"
       d="m 203.74487,247.59742 a 57.05298,102.68984 0 0 1 -23.43441,9.61007 57.05298,102.68984 0 0 1 -24.38249,-9.50086 l -0.84881,25.13205 -37.53177,10.0965 c -15.56406,4.18647 -29.161599,16.93292 -30.483075,28.58193 l -2.208919,19.4434 c -1.690628,11.25024 -0.729687,24.15344 -0.729687,34.19107 0,2.82039 1.585028,5.52198 4.467468,8.04146 -0.539307,-1.145 -0.838872,-2.3134 -0.838872,-3.50447 0,-10.03763 -0.960966,-22.94086 0.729664,-34.1911 l 2.208941,-19.4434 c 1.321477,-11.64901 14.91902,-24.39543 30.48307,-28.58193 l 37.53175,-10.0965 0.84884,-25.13202 a 57.05298,102.68984 0 0 0 24.38248,9.50083 57.05298,102.68984 0 0 0 20.04409,-7.12812 l -0.23814,-7.01891 z m 4.3583,26.07519 0.11907,3.59382 37.93383,10.20571 c 8.77612,2.36063 16.92457,7.4441 22.60048,13.51662 -5.43128,-8.00335 -15.33811,-15.1241 -26.22904,-18.05358 l -34.42439,-9.26257 z"
       id="path5544-6-7"
       inkscape:connector-curvature="0" />
    <path
       style="fill:#aa7378;fill-opacity:1;fill-rule:evenodd;stroke:#8d7256;stroke-width:2.54149723px;stroke-linecap:butt;stroke-linejoin:miter;stroke-opacity:1"
       d="m 153.71343,272.08007 c 0,0 14.47383,10.41828 24.05346,10.89213 9.57966,0.47382 29.49952,-9.98445 29.49952,-9.98445 0,0 26.61005,4.55641 37.90222,9.71862 11.29218,5.16218 20.05,11.70707 25.09406,19.38212 5.04406,7.67508 7.69248,32.96111 7.69248,32.96111 l -32.11247,0.56788 -2.26919,-11.7998 0.45387,64.89892 -134.79015,-1.81532 7.71527,-58.54523 -3.17687,11.34597 -31.071841,-2.3376 c 0,0 1.524189,-31.94961 10.924399,-42.12914 15.212382,-16.47357 60.085242,-23.15521 60.085242,-23.15521 z"
       id="path5540-5-58"
       inkscape:connector-curvature="0"
       sodipodi:nodetypes="czczzccccccccsc" />
    <path
       style="fill:#000000;fill-opacity:0;fill-rule:evenodd;stroke:#f6d281;stroke-width:2.05199122px;stroke-linecap:butt;stroke-linejoin:miter;stroke-opacity:1"
       d="m 170.8358,225.62807 19.23036,0"
       id="path5557-9-7"
       inkscape:connector-curvature="0" />
    <path
       style="fill:#ffffff;fill-opacity:1;fill-rule:evenodd;stroke:none;stroke-width:1px;stroke-linecap:butt;stroke-linejoin:miter;stroke-opacity:1"
       d="m 154.77606,212.96428 c 0,0 14.90211,6.23566 25.76628,5.75418 10.86421,-0.48143 25.42531,-6.94015 25.42531,-6.94015 0,0 0.36486,8.31318 -4.41939,12.22711 -4.78423,3.91393 -12.38342,7.83852 -20.5059,7.74385 -8.1225,-0.0946 -17.11784,-2.28712 -20.34176,-5.96947 -3.22389,-3.68235 -5.92454,-12.81552 -5.92454,-12.81552 z"
       id="path5612-33"
       inkscape:connector-curvature="0"
       sodipodi:nodetypes="czczzzc" />
    <g
       id="g4177"
       transform="matrix(0.02077827,0,0,0.02077827,198.36212,312.55934)">
      <path
         inkscape:export-ydpi="8.8999996"
         inkscape:export-xdpi="8.8999996"
         style="fill:#3d3124"
         inkscape:connector-curvature="0"
         id="path5"
         d="M 605.25359,0 C 273.76407,0 5.1071912,268.65688 5.1071912,600.14641 5.1071912,931.63593 273.76407,1200.2928 605.25359,1200.2928 936.74312,1200.2928 1205.4,931.63593 1205.4,600.14641 1205.4,268.65688 936.64354,0 605.25359,0 Z m 0,1066.3627 c -75.67799,0 -147.0742,-18.0233 -210.20558,-49.9874 l 420.41117,0 c -63.23095,31.9641 -134.62717,49.9874 -210.20559,49.9874 z M 960.04398,902.65922 c -0.29873,-17.72459 -1.09535,-60.54238 -2.58898,-79.66106 0,0 0,-0.0996 0,-0.0996 -0.49789,-11.15256 -1.49365,-22.30511 -2.88772,-33.15891 l -698.62738,0 c -1.39405,10.95338 -2.38982,22.00635 -2.8877,33.15891 0,0 0,0.0996 0,0.0996 -1.49365,19.11868 -2.29026,61.93647 -2.58898,79.66106 -69.50427,-81.4534 -111.42589,-187.1039 -111.42589,-302.51281 0,-123.57421 47.99578,-235.89628 126.46191,-319.24165 2.29025,-2.48941 4.68009,-4.97882 7.06992,-7.36865 84.63986,-86.1335 202.33905,-139.60598 332.68443,-139.60598 130.74369,0 248.8412,53.7712 333.48106,140.4026 0.0996,0.0996 0.19915,0.19916 0.29873,0.29873 81.95132,84.0424 132.43652,198.85388 132.43652,325.51495 0,115.40891 -41.9217,221.05941 -111.42592,302.51281 z"
         class="st0" />
      <g
         inkscape:export-ydpi="8.8999996"
         inkscape:export-xdpi="8.8999996"
         transform="matrix(0.99576304,0,0,0.99576304,5.1071912,0)"
         id="g7">
        <path
           style="fill:#3f3327"
           inkscape:connector-curvature="0"
           id="path9"
           d="m 937.9,275.8 -3.5,8.7 c -28.4,0 -51.7,4 -72.4,12.5 -22.8,9.3 -44.3,24.5 -69.9,49.3 -19.7,19.1 -40.3,50.7 -59.8,91.3 -4.6,9.6 -8.6,18.6 -12,26.5 0,0.1 0,0.1 -0.1,0.2 -0.3,0.8 -0.7,1.5 -1,2.3 -0.2,0.4 -0.3,0.8 -0.5,1.1 -3.8,9.3 -4.3,15.5 -4.4,18.1 -6.9,-2.4 -13.8,-4.7 -20.8,-6.7 3.9,-0.8 12.1,-3.9 16.9,-15 0,0 0,0 0,0 14.1,-33.8 41.4,-91.3 75.3,-124.3 26.4,-25.7 48.9,-41.5 72.8,-51.2 22.6,-9.2 48,-13.5 79.1,-13.1 0.1,0.1 0.2,0.2 0.3,0.3 z"
           class="st1" />
      </g>
      <path
         inkscape:export-ydpi="8.8999996"
         inkscape:export-xdpi="8.8999996"
         inkscape:connector-curvature="0"
         id="path11"
         d="M 721.25999,464.52347" />
      <path
         inkscape:export-ydpi="8.8999996"
         inkscape:export-xdpi="8.8999996"
         style="fill:#e3c53d"
         inkscape:connector-curvature="0"
         id="path13"
         d="m 954.46771,789.64009 -698.52781,0 C 274.36153,647.44515 366.76834,530.54257 490.24297,485.0362 c 2.4894,-0.89619 4.9788,-1.79238 7.56779,-2.68857 33.85595,-11.55086 70.00214,-17.82416 107.44283,-17.82416 31.26696,0 61.63774,4.38136 90.51487,12.54662 6.97034,1.99153 13.94068,4.1822 20.71187,6.67161 125.267,44.51061 219.46619,162.30936 237.98738,305.89839 z"
         class="st2" />
      <path
         inkscape:export-ydpi="8.8999996"
         inkscape:export-xdpi="8.8999996"
         style="fill:#e3c53d"
         inkscape:connector-curvature="0"
         id="path15"
         d="m 815.45918,1016.3753 c -63.13138,31.9641 -134.62717,49.9874 -210.20559,49.9874 -75.57841,0 -147.0742,-18.0233 -210.20558,-49.9874 l 420.41117,0 z"
         class="st2" />
      <ellipse
         inkscape:export-ydpi="8.8999996"
         inkscape:export-xdpi="8.8999996"
         style="fill:#3d3124"
         id="ellipse17"
         ry="41.324169"
         rx="30.47035"
         cy="586.3053"
         cx="644.28754"
         class="st0" />
      <ellipse
         inkscape:export-ydpi="8.8999996"
         inkscape:export-xdpi="8.8999996"
         style="fill:#3d3124"
         id="ellipse19"
         ry="41.324169"
         rx="30.47035"
         cy="586.3053"
         cx="546.00568"
         class="st0" />
      <g
         inkscape:export-ydpi="8.8999996"
         inkscape:export-xdpi="8.8999996"
         transform="matrix(0.99576304,0,0,0.99576304,5.1071912,0)"
         id="g21">
        <path
           style="fill:#3f3327"
           inkscape:connector-curvature="0"
           id="path23"
           d="m 494.8,484.4 c -2.5,0.9 -5.1,1.8 -7.6,2.7 -5.6,-18.9 -24.8,-75.5 -66.7,-126.9 -35.3,-43.2 -74.6,-71.6 -159,-78.2 2.3,-2.5 4.7,-5 7.1,-7.4 82.8,7.7 122.4,36.8 158.1,80.6 42.4,52 62.1,109.3 68.1,129.2 z"
           class="st1" />
      </g>
    </g>
  </g>
  <style
     id="style3"
     type="text/css">
	.st0{fill:#3D3124;}
	.st1{fill:#3F3327;}
	.st2{fill:#E3C53D;}
</style>
</svg>
